<?xml version="1.0" encoding="iso-8859-1"?>
<!-- Generator: Adobe Illustrator 19.0.0, SVG Export Plug-In . SVG Version: 6.00 Build 0)  -->
<svg version="1.1" id="Capa_1" xmlns="http://www.w3.org/2000/svg" xmlns:xlink="http://www.w3.org/1999/xlink" x="0px" y="0px"
	 viewBox="0 0 480 480" style="enable-background:new 0 0 480 480;" xml:space="preserve">
<path id="XMLID_1658_" d="M80.007,239.998v2c0,5.522-4.477,10-10,10c-5.523,0-10-4.477-10-10v-2c0-5.522,4.477-10,10-10
	C75.53,229.998,80.007,234.475,80.007,239.998z M254.004,349.997h-2c-5.523,0-10,4.477-10,10c0,5.522,4.477,10,10,10h2
	c5.523,0,10-4.478,10-10C264.004,354.474,259.527,349.997,254.004,349.997z M110.006,261.998c-5.523,0-10,4.478-10,10v2
	c0,5.522,4.477,10,10,10c5.523,0,10-4.477,10-10v-2C120.006,266.475,115.529,261.998,110.006,261.998z M471.198,283.578
	c2.578,2.426,3.682,6.033,2.902,9.485c-11.798,52.257-41.359,99.702-83.237,133.594c-42.502,34.396-96.078,53.338-150.858,53.338
	c-31.459,0-61.872-5.946-90.596-17.695c-1.792,4.98-5.045,9.352-9.466,12.564c-4.653,3.381-10.129,5.135-15.708,5.135
	c-2.472,0-4.963-0.344-7.413-1.043l-29.825-8.518l-29.825,8.517c-7.978,2.28-16.406,0.787-23.121-4.091
	c-6.714-4.878-10.736-12.432-11.034-20.724l-1.117-30.997L4.582,397.409c-4.633-6.886-5.819-15.361-3.255-23.254
	c2.564-7.892,8.506-14.052,16.301-16.899l10.778-3.936C9.793,318.606,0.008,279.682,0.008,239.998
	c0-53.008,16.938-103.256,48.983-145.311C80,53.989,123.994,23.748,172.868,9.533c3.396-0.99,7.067-0.107,9.644,2.319
	c2.578,2.425,3.682,6.033,2.902,9.485c-3.589,15.898-5.409,32.27-5.409,48.662c0,7.619,0.389,15.146,1.149,22.567
	c6.088-1.707,12.391-2.567,18.851-2.567h2.921c-1.928-6.464-2.921-13.204-2.921-20C200.005,31.402,231.406,0,270.004,0h139.998
	C448.599,0,480,31.402,480,69.999c0,38.598-31.401,69.999-69.999,69.999h-2.921c1.928,6.464,2.921,13.204,2.921,20
	c0,38.598-31.401,69.999-69.999,69.999h-90.846c39.413,37.177,92.517,59.999,150.845,59.999c20.905,0,41.615-2.939,61.552-8.738
	C464.953,280.268,468.62,281.152,471.198,283.578z M184.139,112.573c7.187,36.499,23.428,69.792,46.281,97.425h109.582
	c27.57,0,49.999-22.429,49.999-50c0-8.773-2.317-17.415-6.702-24.991c-1.79-3.094-1.793-6.908-0.008-10.004
	c1.786-3.097,5.088-5.005,8.663-5.005h18.047c27.57,0,49.999-22.429,49.999-50s-22.429-50-49.999-50H270.004
	c-27.569,0-49.999,22.429-49.999,50c0,8.773,2.317,17.415,6.702,24.991c1.79,3.094,1.793,6.908,0.007,10.004
	c-1.786,3.097-5.088,5.005-8.662,5.005h-18.047C194.535,109.999,189.223,110.862,184.139,112.573z M152.815,386.244
	c1.612-2.395,1.21-4.729,0.827-5.907c-0.383-1.179-1.43-3.303-4.141-4.293l-31.817-11.62c-1.753-0.641-3.292-1.759-4.442-3.228
	l-20.883-26.669c-1.78-2.272-4.124-2.611-5.363-2.611s-3.583,0.339-5.363,2.611h0l-20.883,26.669
	c-1.151,1.47-2.69,2.588-4.443,3.228l-31.817,11.62c-2.711,0.99-3.759,3.114-4.142,4.293c-0.383,1.178-0.785,3.513,0.827,5.907
	l18.91,28.103c1.042,1.549,1.63,3.357,1.697,5.223l1.22,33.85c0.104,2.885,1.801,4.537,2.803,5.266
	c1.002,0.728,3.097,1.832,5.874,1.039l32.57-9.3c0.897-0.257,1.821-0.385,2.746-0.385s1.849,0.128,2.746,0.385l32.57,9.301
	c2.775,0.789,4.872-0.313,5.874-1.04c1.002-0.729,2.699-2.381,2.803-5.266l0.21-5.825c0.002-0.147,0.007-0.294,0.016-0.44
	l0.994-27.585c0.067-1.865,0.655-3.674,1.697-5.223L152.815,386.244z M450.313,304.7c-16.482,3.519-33.34,5.297-50.312,5.297
	c-64.105,0-124.373-24.964-169.703-70.294c-45.329-45.329-70.293-105.598-70.293-169.704c0-12.064,0.905-24.123,2.697-36.019
	C77.915,65.86,20.008,148.317,20.008,239.998c0,37.21,9.383,73.689,27.206,106.044l18.673-23.845h0
	c5.117-6.534,12.811-10.281,21.11-10.281s15.993,3.747,21.11,10.281l19.123,24.421l29.134,10.64
	c7.795,2.848,13.737,9.007,16.301,16.899c2.564,7.893,1.378,16.368-3.255,23.254l-17.316,25.734l-0.659,18.289
	c27.936,12.321,57.7,18.563,88.57,18.563C336.356,459.996,422.271,395.609,450.313,304.7z M120.006,209.998c-5.523,0-10,4.477-10,10
	v2c0,5.522,4.477,10,10,10c5.523,0,10-4.477,10-10v-2C130.006,214.476,125.529,209.998,120.006,209.998z M222.004,389.996h-2
	c-5.523,0-10,4.477-10,10c0,5.522,4.477,10,10,10h2c5.523,0,10-4.478,10-10C232.004,394.474,227.527,389.996,222.004,389.996z
	 M202.005,339.997h-2c-5.523,0-10,4.477-10,10c0,5.522,4.477,10,10,10h2c5.523,0,10-4.478,10-10
	C212.005,344.474,207.528,339.997,202.005,339.997z"/>
<g>
</g>
<g>
</g>
<g>
</g>
<g>
</g>
<g>
</g>
<g>
</g>
<g>
</g>
<g>
</g>
<g>
</g>
<g>
</g>
<g>
</g>
<g>
</g>
<g>
</g>
<g>
</g>
<g>
</g>
</svg>
